<?xml version="1.0"?>
<!DOCTYPE svg PUBLIC "-//W3C//DTD SVG 1.1//EN" "http://www.w3.org/Graphics/SVG/1.1/DTD/svg11.dtd">
<svg width="648.4550292309673mm" height="748.7502841269948mm" viewBox="0 0 648.4550292309673 748.7502841269948" xmlns="http://www.w3.org/2000/svg" version="1.1">
<g id="Pad" transform="translate(324.227515,374.375142) scale(1,-1)">
<path id="Pad_f0000"  d="M -317.8701123681212 -368.017739816135 L -317.8701123681212 -368.017739816135 L -120.65000000000045 368.01773981613496 L -120.65000000000045 368.01773981613496 L -317.8701123681212 -368.017739816135 Z " stroke="#191919" stroke-width="0.7 px" style="stroke-width:0.7;stroke-miterlimit:4;stroke-dasharray:none;stroke-linecap:square;fill:#727980;fill-opacity:1.0;fill-rule: evenodd"/>
<path id="Pad_f0001"  d="M -120.65000000000045 368.01773981613496 L -120.65000000000045 368.01773981613496 L -19.050000000000466 368.01773981613496 L -19.050000000000466 368.01773981613496 L -120.65000000000045 368.01773981613496 Z " stroke="#191919" stroke-width="0.7 px" style="stroke-width:0.7;stroke-miterlimit:4;stroke-dasharray:none;stroke-linecap:square;fill:#727980;fill-opacity:1.0;fill-rule: evenodd"/>
<path id="Pad_f0002"  d="M -19.050000000000466 368.01773981613496 L -19.050000000000466 368.01773981613496 L -19.050000000000466 215.61773981613493 L -19.050000000000466 215.61773981613493 L -19.050000000000466 368.01773981613496 Z " stroke="#191919" stroke-width="0.7 px" style="stroke-width:0.7;stroke-miterlimit:4;stroke-dasharray:none;stroke-linecap:square;fill:#727980;fill-opacity:1.0;fill-rule: evenodd"/>
<path id="Pad_f0003"  d="M -19.050000000000466 215.61773981613493 L -19.050000000000466 215.61773981613493 L 19.049999999999542 215.61773981613493 L 19.049999999999542 215.61773981613493 L -19.050000000000466 215.61773981613493 Z " stroke="#191919" stroke-width="0.7 px" style="stroke-width:0.7;stroke-miterlimit:4;stroke-dasharray:none;stroke-linecap:square;fill:#727980;fill-opacity:1.0;fill-rule: evenodd"/>
<path id="Pad_f0004"  d="M 19.049999999999542 215.61773981613493 L 19.049999999999542 215.61773981613493 L 19.04999999999954 368.01773981613496 L 19.04999999999954 368.01773981613496 L 19.04999999999954 215.61773981613493 Z " stroke="#191919" stroke-width="0.7 px" style="stroke-width:0.7;stroke-miterlimit:4;stroke-dasharray:none;stroke-linecap:square;fill:#727980;fill-opacity:1.0;fill-rule: evenodd"/>
<path id="Pad_f0005"  d="M 19.04999999999954 368.01773981613496 L 19.04999999999954 368.01773981613496 L 120.64999999999954 368.01773981613496 L 120.64999999999954 368.01773981613496 L 19.04999999999954 368.01773981613496 Z " stroke="#191919" stroke-width="0.7 px" style="stroke-width:0.7;stroke-miterlimit:4;stroke-dasharray:none;stroke-linecap:square;fill:#727980;fill-opacity:1.0;fill-rule: evenodd"/>
<path id="Pad_f0006"  d="M 120.64999999999954 368.01773981613496 L 120.64999999999954 368.01773981613496 L 317.8701123681213 -368.01773981613496 L 317.8701123681213 -368.01773981613496 L 120.64999999999954 368.01773981613496 Z " stroke="#191919" stroke-width="0.7 px" style="stroke-width:0.7;stroke-miterlimit:4;stroke-dasharray:none;stroke-linecap:square;fill:#727980;fill-opacity:1.0;fill-rule: evenodd"/>
<path id="Pad_f0007"  d="M 317.8701123681213 -368.01773981613496 L 317.8701123681213 -368.01773981613496 L 216.27011236812123 -368.017739816135 L 216.27011236812123 -368.017739816135 L 317.8701123681213 -368.01773981613496 Z " stroke="#191919" stroke-width="0.7 px" style="stroke-width:0.7;stroke-miterlimit:4;stroke-dasharray:none;stroke-linecap:square;fill:#727980;fill-opacity:1.0;fill-rule: evenodd"/>
<path id="Pad_f0008"  d="M 216.27011236812123 -368.017739816135 L 216.27011236812123 -368.017739816135 L 117.66005618406085 7.216449660063518e-15 L 117.66005618406085 7.216449660063518e-15 L 216.27011236812123 -368.017739816135 Z " stroke="#191919" stroke-width="0.7 px" style="stroke-width:0.7;stroke-miterlimit:4;stroke-dasharray:none;stroke-linecap:square;fill:#727980;fill-opacity:1.0;fill-rule: evenodd"/>
<path id="Pad_f0009"  d="M 117.66005618406085 7.216449660063518e-15 L 117.66005618406085 7.216449660063518e-15 L -117.66005618406085 1.7592627689526935e-31 L -117.66005618406085 1.7592627689526935e-31 L 117.66005618406085 7.216449660063518e-15 Z " stroke="#191919" stroke-width="0.7 px" style="stroke-width:0.7;stroke-miterlimit:4;stroke-dasharray:none;stroke-linecap:square;fill:#727980;fill-opacity:1.0;fill-rule: evenodd"/>
<path id="Pad_f0010"  d="M -117.66005618406085 1.7592627689526935e-31 L -117.66005618406085 1.7592627689526935e-31 L -216.27011236812123 -368.017739816135 L -216.27011236812123 -368.017739816135 L -117.66005618406085 1.7592627689526935e-31 Z " stroke="#191919" stroke-width="0.7 px" style="stroke-width:0.7;stroke-miterlimit:4;stroke-dasharray:none;stroke-linecap:square;fill:#727980;fill-opacity:1.0;fill-rule: evenodd"/>
<path id="Pad_f0011"  d="M -216.27011236812123 -368.017739816135 L -216.27011236812123 -368.017739816135 L -317.8701123681212 -368.017739816135 L -317.8701123681212 -368.017739816135 L -216.27011236812123 -368.017739816135 Z " stroke="#191919" stroke-width="0.7 px" style="stroke-width:0.7;stroke-miterlimit:4;stroke-dasharray:none;stroke-linecap:square;fill:#727980;fill-opacity:1.0;fill-rule: evenodd"/>
<path id="Pad_f0012"  d="M -317.8701123681212 -368.017739816135 L -120.65000000000045 368.01773981613496 L -19.050000000000466 368.01773981613496 L -19.050000000000466 215.61773981613493 L 19.049999999999542 215.61773981613493 L 19.04999999999954 368.01773981613496 L 120.64999999999954 368.01773981613496 L 317.8701123681213 -368.01773981613496 L 216.27011236812123 -368.017739816135 L 117.66005618406085 7.216449660063518e-15 L -117.66005618406085 1.7592627689526935e-31 L -216.27011236812123 -368.017739816135 L -317.8701123681212 -368.017739816135 Z " stroke="#191919" stroke-width="0.7 px" style="stroke-width:0.7;stroke-miterlimit:4;stroke-dasharray:none;stroke-linecap:square;fill:#727980;fill-opacity:1.0;fill-rule: evenodd"/>
<path id="Pad_f0013"  d="M -120.65000000000045 368.01773981613496 L -19.050000000000466 368.01773981613496 L -19.050000000000466 215.61773981613493 L 19.049999999999542 215.61773981613493 L 19.04999999999954 368.01773981613496 L 120.64999999999954 368.01773981613496 L 317.8701123681213 -368.01773981613496 L 216.27011236812123 -368.017739816135 L 117.66005618406085 7.216449660063518e-15 L -117.66005618406085 1.7592627689526935e-31 L -216.27011236812123 -368.017739816135 L -317.8701123681212 -368.017739816135 L -120.65000000000045 368.01773981613496 Z " stroke="#191919" stroke-width="0.7 px" style="stroke-width:0.7;stroke-miterlimit:4;stroke-dasharray:none;stroke-linecap:square;fill:#727980;fill-opacity:1.0;fill-rule: evenodd"/>
<title>b'Pad'</title>
</g>
</svg>